<?xml version="1.0" encoding="utf-8"?>
<!-- Generator: Adobe Illustrator 25.0.0, SVG Export Plug-In . SVG Version: 6.00 Build 0)  -->
<svg version="1.1" id="Capa_1" xmlns="http://www.w3.org/2000/svg" xmlns:xlink="http://www.w3.org/1999/xlink" x="0px" y="0px"
	 viewBox="0 0 512 512" style="enable-background:new 0 0 512 512;" xml:space="preserve">
<style type="text/css">
	path{fill:#FAF1E2;}
</style>
<g>
	<g>
		<path d="M458.5,0h-405C44,0,36.2,7.7,36.2,17.3v73.1c0,4.3,1.6,8.4,4.5,11.6l153.7,168.8v224c0,6.1,3.3,11.8,8.6,14.9
			c2.7,1.6,5.7,2.3,8.7,2.3c3,0,5.9-0.8,8.6-2.3l88.6-50.6c5.4-3.1,8.7-8.8,8.7-15V270.7l153.7-168.8c2.9-3.2,4.5-7.3,4.5-11.6V17.3
			C475.8,7.7,468,0,458.5,0z M441.2,83.6L287.5,252.4c-2.9,3.2-4.5,7.3-4.5,11.6v170L229,465v-201c0-4.3-1.6-8.4-4.5-11.6L70.8,83.6
			V34.5h370.5V83.6z"/>
	</g>
</g>
</svg>
