<?xml version="1.0" encoding="utf-8"?>
<!-- Generator: Adobe Illustrator 25.0.0, SVG Export Plug-In . SVG Version: 6.00 Build 0)  -->
<svg version="1.1" id="Capa_1" xmlns="http://www.w3.org/2000/svg" xmlns:xlink="http://www.w3.org/1999/xlink" x="0px" y="0px"
	 viewBox="0 0 301.2 301.2" style="enable-background:new 0 0 301.2 301.2;" xml:space="preserve">
<style type="text/css">
	path{fill:#FAF1E2;}
</style>
<g>
	<path d="M199.5,23.7v-10c0-5.5-5.6-10-12.5-10H12.5C5.6,3.7,0,8.2,0,13.7v10c0,5.5,5.6,10,12.5,10H187
		C193.9,33.7,199.5,29.3,199.5,23.7z"/>
	<path d="M148,88.1H11.3C5.1,88.1,0,93.1,0,99.4v11.3C0,117,5.1,122,11.3,122H148c6.3,0,11.3-5.1,11.3-11.3V99.4
		C159.4,93.1,154.3,88.1,148,88.1z"/>
	<path d="M111.8,176.4H10c-5.5,0-10,4.5-10,10v10c0,5.5,4.5,10,10,10h101.8c5.5,0,10-4.5,10-10v-10
		C121.8,180.9,117.3,176.4,111.8,176.4z"/>
	<path d="M74.2,262.7H10c-5.5,0-10,4.5-10,10v10c0,5.5,4.5,10,10,10h64.2c5.5,0,10-4.5,10-10v-10
		C84.2,267.2,79.8,262.7,74.2,262.7z"/>
	<path d="M298.3,216.9l-7.1-7.1c-1.9-1.9-4.4-2.9-7.1-2.9s-5.2,1.1-7.1,2.9l-34.4,34.4V18.7c0-5.5-4.5-10-10-10h-10
		c-5.5,0-10,4.5-10,10v225.5l-34.4-34.4c-1.9-1.9-4.4-2.9-7.1-2.9s-5.2,1.1-7.1,2.9l-7.1,7.1c-3.9,3.9-3.9,10.2,0,14.1l63.5,63.5
		c2,2,4.5,2.9,7.1,2.9s5.1-1,7.1-2.9l63.5-63.5C302.2,227.1,302.2,220.8,298.3,216.9z"/>
</g>
</svg>
