<?xml version="1.0" encoding="utf-8"?>
<!-- Generator: Adobe Illustrator 25.0.0, SVG Export Plug-In . SVG Version: 6.00 Build 0)  -->
<svg version="1.1" id="Layer_1" xmlns="http://www.w3.org/2000/svg" xmlns:xlink="http://www.w3.org/1999/xlink" x="0px" y="0px"
	 viewBox="0 0 512 512" style="enable-background:new 0 0 512 512;" xml:space="preserve">
<style type="text/css">
	.st0{fill:#FAF1E2;}
</style>
<g>
	<g>
		<path class="st0" d="M501.4,384L320.5,51.5c-29.1-48.9-99.9-49-129,0L10.6,384c-29.7,50,6.3,113.3,64.5,113.3h361.7
			C495,497.2,531.1,434,501.4,384z M256,437.2c-16.5,0-30-13.5-30-30s13.5-30,30-30s30,13.5,30,30S272.5,437.2,256,437.2z
			 M286,317.2c0,16.5-13.5,30-30,30s-30-13.5-30-30v-150c0-16.5,13.5-30,30-30s30,13.5,30,30V317.2z"/>
	</g>
</g>
</svg>
